<svg width="514" height="439" fill="none" xmlns="http://www.w3.org/2000/svg"><g clip-path="url(#clip0)"><path d="M108 55.82c16.91 1.13 24-10.42 31.93-25.26 21.76-40.64 70.22-36.73 86.48-11.7 11.51 17.72 36.35 14.07 56.42 7.14 19.77-6.83 53.45-13.39 80.29-5.23 23.43 7.13 33.04 32.84 54.4 31.25 46.6-3.44 70.1 42.58 61.65 62.66-5.51 13.1-8.24 27.76-3.77 41.24 4.93 14.84 16.2 26.6 25.31 39.37 9.1 12.76 16.44 28.72 11.91 43.7-3.87 12.82-15.43 21.68-22.6 33-22.27 35.19-.24 89.12-29.92 118.45-21.25 21-55.88 16.15-85.61 20.16-24.8 3.34-48.12 13.76-72.8 17.83-49.98 8.27-100.45-9.93-151.11-10.45-17.85-.19-36.03 1.8-53.32-2.6-23.06-5.87-42.69-23.63-50.7-45.85-11.04-30.67-.58-66.16-13.04-96.29-10.16-24.54-35.01-44.51-33.44-71 .97-16.49 12.22-30.27 19.97-44.9C31.55 135.6 16.3 49.68 108 55.82zM255.48 16c-4.45 0-8.05 2.77-8.05 6.17s3.62 5.87 8.05 6.17c14.46.95 14.46-4.9 14.46-8.3 0-5.44-10.02-4.04-14.46-4.04zM402.3 42.31a23.8 23.8 0 0013.82 5.37c1.34.06 2.8-.02 3.83-.87a3.14 3.14 0 00.28-4.4c-.71-.77-1.75-1.1-2.73-1.5-1.65-.68-3.27-1.64-4.2-3.15-.28-.43-.52-.94-.96-1.19-2.78-1.57-15.13 1.54-10.04 5.74zm24.63 5.46c1.27.44 2.66.03 3.95-.38.82-.27 1.83-.86 1.61-1.68-.1-.4-.47-.66-.84-.86-1.7-.9-3.88-1.57-5.57-.41-1.7 1.15-.42 2.9.85 3.33zM485.73 164c.2 1.92 1.4 3.58 2.54 5.14 2.2 3.01 4.45 6.07 7.36 8.42 1.24 1 2.67 1.88 4.26 1.94a6.6 6.6 0 004-1.45 12.78 12.78 0 005.2-8.81c.53-4.77-1.69-9.42-4.26-13.48-1.6-2.52-3.47-5.03-6.13-6.37-4.49-2.27-7.44-.3-8.7 3.68-1.14 3.66-4.74 6.86-4.28 10.93zM8.78 275.07c-2.36 2.08-.22 8.17.47 12.2.2 1.2.49 2.44 1.24 3.4 1.04 1.32 2.78 1.86 4.4 2.34 2.86.83 6.35 1.54 8.55-.48 1.62-1.5 1.86-3.94 1.85-6.14 0-2.02-.11-4.02-.33-6.03a6.28 6.28 0 00-.75-2.77c-.67-1.05-1.83-1.66-2.97-2.15-4.1-1.73-10.1-2.44-12.46-.37zm144.28 152.54c-1.4.28-3.06.89-3.27 2.29-.16 1.16.8 2.14 1.74 2.84 7.7 5.75 18.08 6.12 27.72 6.25 1.12.01 2.3.02 3.32-.41a4.29 4.29 0 002.1-5.6 6.72 6.72 0 00-1.5-1.91c-7.72-7.56-20.46-5.39-30.11-3.46zm192.4-3.89c-8.7 6.36.1 12.05 11.08 7.84 5.92-2.28 11.6-4.52 17.66-6.04 1.96-.49 13.8-3.06 13.8-5.71 0-7.06-13.34-5.39-21.73-4.22-6.77.95-13.64 2.89-20.8 8.13z" fill="#ECF3FF"/><path d="M182.06 405.33c23.12 0 41.86-1.75 41.86-3.9 0-2.17-18.74-3.92-41.86-3.92s-41.85 1.75-41.85 3.91 18.73 3.91 41.85 3.91zM397.1 405.33c23.1 0 41.85-1.75 41.85-3.9 0-2.17-18.74-3.92-41.86-3.92s-41.86 1.75-41.86 3.91 18.74 3.91 41.86 3.91z" fill="#C8DBFB"/><path d="M485.53 125.95c-.12-.73-.25-1.44-.4-2.14" stroke="#C8DBFB" stroke-linecap="round" stroke-linejoin="round"/><path d="M484.1 119.62c-7.45-25.44-31.27-22.98-52.79-22.94l-381.76.79c-36.05.08-32.55 52.13-4.33 52.07 16.22-.03 22.4 30.45-5.66 30.5-16.83.03-17.37 21.38-6.05 25.66" stroke="#C8DBFB" stroke-linecap="round" stroke-linejoin="round" stroke-dasharray="3.99 3.99"/><path d="M35.59 206.25c.68.12 1.4.19 2.16.18" stroke="#C8DBFB" stroke-linecap="round" stroke-linejoin="round"/><path d="M42.17 205.44a5.2 5.2 0 11-10.25 1.74 5.2 5.2 0 0110.25-1.74zM490.63 128.29a5.18 5.18 0 11-10.2-1.85 5.18 5.18 0 0110.2 1.85zM95.04 167.54a90.44 90.44 0 01-3.17 12.4c-2.87 8.76-6.83 17.2-10.84 25.53-2.1 4.36-10.57 14.44-15.12 16.35.53-11.36.58-24.64-.75-36.11-1.26-11.06 2.71-19.43-1.62-29.68-.55-1.31-1.13-2.62-1.7-3.94-2.16-4.87-4.29-9.77-4.96-15.03-.87-6.66 1.2-14.25 6.96-17.72 4.15-2.5 9.55-2.37 13.98-.4 4.43 1.96 7.99 5.54 10.68 9.56 7.55 11.23 8.92 25.73 6.54 39.04z" fill="#5193F4"/><path d="M74.9 130.73c8.48 11.98 9.22 25.94 9.95 40.6a78.26 78.26 0 01-10.03 42.28" stroke="#0B43A4" stroke-miterlimit="10" stroke-linecap="round" stroke-linejoin="round"/><path d="M74.54 351.76c-5.94-5.26-11.95-10.59-16.35-17.2-3.82-5.75-6.3-12.29-9.63-18.34-2.15-3.92-4.71-7.7-5.96-11.99-1.24-4.29-.95-9.38 2.1-12.64 3.19-3.42 8.66-3.94 12.98-2.18 4.32 1.75 7.62 5.4 10.14 9.32a44.45 44.45 0 016.52 17.26c.84 5.55.62 11.23 1.5 16.77a56.15 56.15 0 004.72 14.87c1.99 4.3 7.02 11.95 8.3 16.35-3.56 1.77-11.78-9.98-14.32-12.22z" fill="#00AD9F"/><path d="M53.76 297.25c5.65 2.48 7.9 9.23 9.08 15.28 1.34 6.9 1.03 14.36 4.2 20.64 5.95 11.82 13.7 25.26 19.46 29.28" stroke="#00AD9F" stroke-miterlimit="10" stroke-linecap="round" stroke-linejoin="round"/><path d="M45.3 335.6c-4.94-1.96-11.53-2.76-14.7 1.5-2.64 3.56-1.27 8.62.56 12.66 1.55 3.42 3.5 6.9 6.76 8.75 2.22 1.27 4.83 1.65 7.37 1.95 7.1.85 14.23 1.26 21.38 1.24 8.27-.03 18.3 3.36 25.16 8.52-8.8-16.34-29.94-28.07-46.54-34.63z" fill="#0056EC"/><path d="M36.64 346.21c6.28.27 12.61.7 18.64 2.5 6.16 1.81 29.86 12.7 33.57 17.33" stroke="#0B43A4" stroke-miterlimit="10" stroke-linecap="round" stroke-linejoin="round"/><path d="M99.1 302.04a41.82 41.82 0 00-29.23-18.67c-8.72-1.17-17.7.46-26.32-1.35a33.94 33.94 0 01-21.94-15.7 34.07 34.07 0 01-3.3-26.79c2.02-6.74 6.64-13.13 13.34-15.29 3.64-1.17 7.63-1 11.36-.12 3.44.82 6.63 2.27 9.58 4.14 6.74 4.27 12.18 10.84 16.28 17.81 3.71 6.34 12.87 16.22 19.11 22.64 3.66 3.75 6.32 6.32 6.32 6.32 4.26 5.33 2.26 20.67 4.8 27.01z" fill="#52D2BC"/><path d="M29.68 243.74c20.98 9.47 43.86 21.88 58.74 39.46" stroke="#00AD9F" stroke-miterlimit="10" stroke-linecap="round" stroke-linejoin="round"/><path opacity=".2" d="M90.43 280.84s-31.26-25.36-37.85-52.57c6.74 4.27 12.18 10.84 16.28 17.82 3.71 6.34 12.87 16.2 19.11 22.63.74 3.4 1.55 7.4 2.46 12.12zM91.87 179.93c-2.87 8.77-6.83 17.21-10.84 25.54-2.09 4.36-10.57 14.44-15.12 16.35.53-11.36.58-24.64-.75-36.11-1.26-11.06 2.71-19.43-1.62-29.68-.55-1.31-1.13-2.62-1.7-3.94.4.13.79.28 1.17.44 7.12 3.05 10.42 10.6 11.02 17.92.51 6.05-.58 12.1-1.4 18.12-.37 2.77-.68 5.61-.08 8.33l.02.09c.75 3.24 5.48 3.05 6.09-.23l1.9-10.07c.56-3 1.17-6.16 3.64-8.26a5.22 5.22 0 013.51-1.31c2.04.07 3.32 1.26 4.16 2.81z" fill="#5275A0"/><path d="M90.43 274.49c-4.94-25.8-7.54-29.78-5.36-36.25 2.77-8.25 1.21-16.52 3.82-24.82s4.39-17.21 2.29-25.65c-.66-2.67-2.02-5.57-5.22-5.7a5.2 5.2 0 00-3.51 1.32c-2.47 2.1-3.09 5.25-3.65 8.27l-1.89 10.06c-.61 3.28-5.33 3.47-6.08.22l-.02-.09c-.61-2.72-.3-5.56.07-8.33.81-6.02 1.9-12.07 1.41-18.13-.6-7.32-3.9-14.86-11.04-17.91a12.59 12.59 0 00-8.04-.64c-7.44 1.9-9.37 9.19-8.28 15.4.77 4.38 2.82 8.4 4.67 12.43 4.53 9.85 1.2 18.89 1.83 29.71 1.73 29.9 39 60.1 39 60.1z" fill="#7EE8D4"/><path d="M57.23 164.66c3.67 18.36 7.38 36.85 14.5 54.16 2.1 5.07 3.12 11.76 15.21 25.56" stroke="#00AD9F" stroke-miterlimit="10" stroke-linecap="round" stroke-linejoin="round"/><path d="M200.45 169.37c-3.8-4.35-7.3-8.77-11-13.03-2.4-2.76-4.86-5.46-7.55-8.02a76.3 76.3 0 00-4.16-3.71 116.76 116.76 0 00-28.38-17.35c-6.18-2.65-12.7-4.82-17.94-9.04-5.24-4.2-9-11.12-7.26-17.6 1.26-4.69 5.24-8.33 9.8-10 4.54-1.66 9.6-1.53 14.32-.5 13.22 2.84 24.25 12.35 31.76 23.58l.4.6c5.5 8.4 9.34 17.75 12.7 27.26 1.06 3.06 2.08 6.13 3.09 9.2 1.51 4.59 6.17 14.07 4.22 18.6z" fill="#5193F4"/><path d="M140.01 101.15c14.41 2.76 24.62 12.3 35.3 22.36a78.27 78.27 0 0122.08 37.43" stroke="#0B43A4" stroke-miterlimit="10" stroke-linecap="round" stroke-linejoin="round"/><path opacity=".2" d="M189.45 156.34c-.12 1.5-.08 3 .2 4.51-3.6-.82-6.1-6.43-7.75-12.53a94.18 94.18 0 01-2.66-15.3 66.2 66.2 0 011.2-18.71c5.5 8.4 9.34 17.74 12.7 27.25a112.46 112.46 0 00-2.95 10.36 30.08 30.08 0 00-.74 4.42z" fill="#5275A0"/><path d="M214.46 104.28c-1.23 5.4-4.49 10.07-7.37 14.82a116.74 116.74 0 00-13.85 33.9c-.7 2.99-1.1 5.91-.53 8.93-7.1-1.62-9.94-21.83-10.42-27.83a65.46 65.46 0 015.44-31.8c1.94-4.35 4.45-8.62 8.31-11.4 3.86-2.8 9.32-3.77 13.4-1.34a10.94 10.94 0 014.8 6.65c.77 2.58.8 5.45.22 8.07z" fill="#52D2BC"/><path d="M190 155.97c-4.42-11.1-1.73-34.6 5.35-49.38 2.13-4.45 5.18-8.62 9.43-11.1" stroke="#00AD9F" stroke-miterlimit="10" stroke-linecap="round" stroke-linejoin="round"/><path opacity=".2" d="M214.46 104.28c-1.23 5.4-4.49 10.07-7.37 14.82-1.52 2.5-2.94 5.06-4.26 7.66a25.94 25.94 0 01-3.64-10.65c-.59-6.3 1.81-13.04 6.93-16.74 2.39-1.73 5.2-2.71 8.13-3.16.76 2.58.79 5.45.2 8.07z" fill="#5275A0"/><path d="M255.45 151.31a22.92 22.92 0 01-1.84 5.99c-3.16 6.82-9.77 12.67-19.68 17.44 0 0-.56-10.8-.68-13.68-.48-12.38-13.9-19.22-22.4-28.24-4.31-4.6-7.6-10.42-8.2-16.71-.6-6.3 1.8-13.04 6.92-16.74 4.29-3.1 9.9-3.77 15.18-3.37 8.52.68 17.1 4.24 22.4 10.9.23.25.42.52.62.78 3.24 4.43 4.9 9.83 6.13 15.2 2.12 9.3 3.07 19 1.55 28.43z" fill="#00AD9F"/><path d="M213.23 106c9.3 4.8 18.6 10.62 24 19.57 7.55 12.5 5.9 28.75.09 42.13" stroke="#00AD9F" stroke-miterlimit="10" stroke-linecap="round" stroke-linejoin="round"/><path d="M410.86 231.12c5.92-9.75 2.89-22.3 4.96-33.51a37.04 37.04 0 0113.24-22.09c4.31-3.42 10.37-5.87 15.23-3.3 1.05.55 2.3 1.34 3.32.71.6-.37.85-1.13 1-1.82 1.23-6.06-1.68-12.68.7-18.39 1.28-3.07 3.93-5.37 6.74-7.16a36.7 36.7 0 0118.16-5.7c1.7-.06 3.48 0 5 .76 2.75 1.38 4.01 4.81 3.64 7.87-.37 3.05-2.06 5.8-3.92 8.24-6.21 8.14-15.32 15.16-16.52 25.33a6.66 6.66 0 00.43 3.79c.57 1.12 1.64 1.9 2.23 3 1.92 3.52-1.79 7.52-5.4 9.24a31.22 31.22 0 01-10.52 2.92c-2.51.24-5.34.3-7.05 2.14-3.15 3.43.47 8.9-.2 13.5-.4 2.88-2.49 5.2-4.59 7.21a83.02 83.02 0 01-12.67 10c-3.68 2.37-7.57 4.45-10.83 7.35-3.26 2.9-5.89 6.84-6.1 11.2" fill="#52D2BC"/><path d="M418.65 221.63c.97-4.72 3.17-9.1 5.34-13.4 3.4-6.73 6.87-13.56 12-19.08 3.9-4.19 8.65-7.5 12.62-11.63a43.46 43.46 0 007.13-9.9c1.02-1.97 1.91-4.03 3.29-5.75 1.64-2.05 3.89-3.51 5.85-5.27a24.99 24.99 0 006.19-8.55" stroke="#00AD9F" stroke-miterlimit="10" stroke-linecap="round" stroke-linejoin="round"/><path d="M495.88 237.88c-1.33 5.14-3.31 10.22-6.71 14.3a30.47 30.47 0 01-8.47 6.83 47.74 47.74 0 01-5.13 2.5 61.47 61.47 0 01-21.4 4.75c-10.7.4-21.7-1.96-31.98 1.1a31.5 31.5 0 00-12.61 7.31 30.7 30.7 0 00-5.67 7.16l1.4-8.88c2.59-9.56 5.23-19.29 10.52-27.67 3.4-5.42 7.84-10.15 12.55-14.5 7.52-6.95 15.88-13.07 25.1-17.55 7.44-3.62 15.72-6.16 23.95-5.16 8.22 1 16.3 6.2 18.86 14.08 1.65 5.06.93 10.59-.4 15.73z" fill="#5193F4"/><path d="M412.3 266.19a64.9 64.9 0 0132.96-25.03c8.3-2.78 17.08-3.83 25.49-6.26 8.4-2.42 16.8-6.54 21.72-13.78" stroke="#0B43A4" stroke-miterlimit="10" stroke-linecap="round" stroke-linejoin="round"/><path d="M417.48 351.54c.47-11.95 6.64-22.98 14.15-32.3 6.25-7.77 13.8-14.88 23.12-18.42 2.92-1.1 6.13-1.85 9.16-1.1 3.03.74 5.78 3.33 5.84 6.46.04 2.64-1.72 4.94-3.59 6.8-6.13 6.15-14.04 10.08-21.47 14.57-12.76 7.72-24.89 18.01-29.95 32.04" fill="#52D2BC"/><path d="M422.2 341.09c7.8-17.4 27.99-32.97 41.3-34.9" stroke="#00AD9F" stroke-miterlimit="10" stroke-linecap="round" stroke-linejoin="round"/><path d="M412.61 361.05c-.1-2 6.42-7.24 7.9-8.58a75.47 75.47 0 0128.07-16.04c4.13-1.3 8.54-2.25 12.68-1.25 4.15 1 7.95 4.4 8.35 8.86.39 4.34-2.51 8.59-6.23 10.68-3.71 2.1-8.05 2.41-12.18 2.17-6.4-.36-12.67-1.96-19.08-1.91-6.43.05-15.44.7-19.51 6.07z" fill="#00AD9F"/><path d="M419.26 354.97c13.12-7.11 32.94-11.74 47.35-10" stroke="#00AD9F" stroke-miterlimit="10" stroke-linecap="round" stroke-linejoin="round"/><path opacity=".2" d="M255.45 151.31a22.92 22.92 0 01-1.84 5.99c-4.6-9.77-8.66-22.51-9.63-38.16-.26-4.23.92-8.6 3.17-12.24.23.25.42.52.62.78 3.24 4.43 4.9 9.83 6.13 15.2 2.12 9.3 3.07 19 1.55 28.43z" fill="#5275A0"/><path d="M300.81 150.76c9.8-3.48 19.97-6.25 28.88-11.63 2.7-1.62 5.28-3.5 7.2-6 1.9-2.5 3.08-5.68 2.66-8.8-.43-3.16-2.46-6.2-1.78-9.33.46-2.06 2-3.66 3.18-5.42a17.34 17.34 0 002.22-14.39c-1.54-5.15-5.4-9.3-7.6-14.2a23.74 23.74 0 01-1.83-12.9c-8.22.11-15.72 4.6-23.8 6.1-6.18 1.15-12.6.52-18.73 1.93-11.17 2.57-20.31 12.41-22.04 23.74a16.3 16.3 0 00-14.36 4.82 21.17 21.17 0 00-5.63 15.45c2.52 40.56 25.73 61.7 25.73 61.7s22.17-29.74 25.9-31.07z" fill="#7EE8D4"/><path d="M278.9 150.48c-1.01-10 2.48-19.9 6.5-29.12 3.9-8.98 8.4-17.79 14.45-25.5 6.04-7.72 13.72-14.33 22.78-18.06M287.62 83.95a80.78 80.78 0 002.02 28.33M291.3 109.09c10.18-6.54 25.84-10.5 37.92-9.81M266.4 110.75c12.27 5.17 12.76 23.2 13.1 28.33M282.83 127.62c9.38-6.73 22.93-8.76 32.9-6.25M308.43 79.3a14.82 14.82 0 00-3.24 10.5M307.85 87.25c4.32-2.2 10.1-2.72 16.3-1.17" stroke="#00AD9F" stroke-miterlimit="10" stroke-linecap="round" stroke-linejoin="round"/><path d="M66.71 106.88c1.15-.07 9.01-5.89 12.03-7.85a8.19 8.19 0 002.31-1.95c.6-.82.88-1.95.45-2.87-.55-1.14-1.43-2.28-3.68-2.28-3.9.01-5.27 1.3-7.18 3.26-6.29 6.52-3.93 11.69-3.93 11.69zM101.94 130.36c3.42 1.54 7.07 3.06 10.8 2.59 1.44-.19 3.02-.85 3.5-2.21.4-1.17-.15-2.53-1.08-3.35a7.7 7.7 0 00-3.37-1.52c-4.55-1.12-10.95-.5-15.46.78 0 0 3.57 2.79 5.61 3.7zM124.47 79.8c-1.53-.97-3.22-2.26-3.2-4.07 0-1.8 1.88-3.18 3.69-3.2 1.8 0 3.48.98 4.85 2.18 5.75 5.06 5.03 10.83 5.03 10.83s-8.67-4.67-10.37-5.74zM129 64.38c-1.34-.58-2.71-1.27-3.5-2.5-.38-.6-.6-1.36-.37-2.03.39-1.12 1.1-2.13 3.92-1.62 8.93 1.63 10.88 7.75 10.88 7.75s-8.55-.58-10.92-1.6zM155.18 77.92a14.1 14.1 0 009.54-4.9 8.7 8.7 0 001.92-3.55c.28-1.33-.02-2.85-1.05-3.74-1.26-1.08-3.25-.9-4.62 0-1.4.91-2.28 2.4-3 3.9-.95 1.99-2.79 8.3-2.79 8.3z" fill="#4A49CA"/><path d="M91.19 208.67L65.15 185.7c-4.62-4.08-9.34-8.28-12.27-13.71-6.29-11.67-2.66-26.83 5.84-37 8.5-10.18 20.96-16.18 33.48-20.55 12.5-4.37 25.53-7.43 37.46-13.22 7.48-3.63 15-9.03 17.05-17.09a17.3 17.3 0 00-2.75-14.26 17.26 17.26 0 00-12.74-6.96M161.25 69.6c-2.38 7.28-11.61 11.71-15.82 18.03" stroke="#0B43A4" stroke-miterlimit="10" stroke-linecap="round" stroke-linejoin="round"/><path d="M128.09 77.98c1.81 1.91 4 3.5 5.58 5.62 3.36 4.48 3.63 11.75-1.33 16.25M81.35 118.76c7.66 5.9 17.72 9.84 27.38 10.21M63.83 129.51c-3.53-10.4.32-22.86 9.09-29.46" stroke="#0B43A4" stroke-miterlimit="10" stroke-linecap="round" stroke-linejoin="round"/><path d="M343.69 85.56c-.41-1.29-.4-2.87.55-3.83.76-.76 2.01-1.11 3-.68 7.61 3.35 6.8 15.24 6.8 15.24s-7.22-1.04-10.35-10.73zM343.5 107.83c-4.92 8.9 12.58 8.22 18.9 2.98 0 0-14.65-10.65-18.9-2.98zM365.64 86.24c-1.2-1.62-1.61-4.05-.31-5.6.96-1.15 2.64-1.5 4.11-1.22a9.64 9.64 0 014.63 2.81c5.76 7.18 3.05 14.19 3.05 14.19s-9.54-7.51-11.48-10.18zM435.15 108.3c-.42-1.4-.33-3.08.75-4.06a3.43 3.43 0 012.55-.77c.91.07 1.79.4 2.62.78a8.33 8.33 0 014.03 4.01c2.17 4.47.7 9.98.7 9.98s-9.6-6.49-10.65-9.94zM413.28 124.64a11.23 11.23 0 00-11.6-1.87 5.91 5.91 0 00-2.49 1.87c-1.38 1.91-.9 4.71.54 6.58 1.43 1.88 3.61 3.02 5.76 4 3.9 1.76 9.95 2.12 14.1 3.18-.02-.01-.03-8.25-6.3-13.76z" fill="#4A49CA"/><path d="M349.15 87.48c2.57 8.43 9.86 14.8 17.97 18.24 8.12 3.44 17.05 4.35 25.86 4.92 8.79.57 17.7.85 26.2 3.16 8.28 2.25 16.54 6.94 20.1 14.76 4.33 9.52.5 20.9-5.6 29.42-6.07 8.5-14.26 15.36-20.14 24.01-2.7 3.97-4.96 8.63-4.4 13.4.72 6.36 6.08 11.04 11.05 15.07M369.42 84.38c5.83 6.45 10.48 16.54 11.62 25.16" stroke="#0B43A4" stroke-miterlimit="10" stroke-linecap="round" stroke-linejoin="round"/><path d="M349.82 109.3c3.33.9 6.71 1.78 10.16 1.8 3.44 0 7.44-1.92 9.92-4.31M440.86 108.82a17.24 17.24 0 015.18 11.6c.16 4.35-2.24 9.6-5.13 12.84M408.18 128.51c6.24 5.75 11.67 10.4 18.6 15.27 3.16 2.24 9.44 5.09 12.23 4.35" stroke="#0B43A4" stroke-miterlimit="10" stroke-linecap="round" stroke-linejoin="round"/><path opacity=".2" d="M480.7 259.01a47.81 47.81 0 01-5.13 2.5 61.48 61.48 0 01-21.4 4.75c-10.7.4-21.7-1.96-31.98 1.1a31.5 31.5 0 00-12.61 7.31c-.36.18-.72.37-1.07.58-.86-7.25 17.2-16.7 22.7-19.16a65.4 65.4 0 0131.78-5.55c4.74.38 9.6 1.31 13.52 4a14.47 14.47 0 014.19 4.47z" fill="#5275A0"/><path d="M462.98 254.87c4.74.38 9.6 1.31 13.52 4.01 3.9 2.7 6.67 7.52 5.76 12.2-1.06 5.43-6.69 8.98-12.19 9.64-5.5.67-10.99-.85-16.41-1.96a116.81 116.81 0 00-36.59-1.67c-3.04.33-5.92.94-8.57 2.5-.86-7.25 17.21-16.7 22.7-19.16a65.28 65.28 0 0131.78-5.56z" fill="#52D2BC"/><path d="M413.2 275.02c8.96-7.89 32-13.24 48.29-11.52 4.9.52 9.85 1.98 13.62 5.17" stroke="#00AD9F" stroke-miterlimit="10" stroke-linecap="round" stroke-linejoin="round"/><path d="M396.44 186.38l87.6-.19a18.62 18.62 0 01.08 37.25l-59.92.12M131.39 250.74l-61.27.13a10.5 10.5 0 10.05 21.02l17.86-.04" stroke="#0B43A4" stroke-miterlimit="10" stroke-linecap="round" stroke-linejoin="round" stroke-dasharray="4 4"/><path d="M33.6 298.2c-20.98.04-21.42 31.37 5.28 31.3l393.54-.81c16.51-.03 18.26-25.82-2.16-25.78-40.64.09-41.99-19.3-19.43-19.35" stroke="#C8DBFB" stroke-miterlimit="10" stroke-linecap="round" stroke-linejoin="round" stroke-dasharray="4 4"/><path d="M38.51 297.33a5.2 5.2 0 11-10.25 1.74 5.2 5.2 0 0110.25-1.74z" fill="#5193F4"/><path d="M420.9 283.7a5.2 5.2 0 11-10.25 1.73 5.2 5.2 0 0110.26-1.73z" fill="#0B43A4"/><path opacity=".2" d="M426.55 374.27l-325.86.67a7.87 7.87 0 01-7.89-7.86l-.44-216a7.87 7.87 0 017.85-7.88l325.86-.67a7.87 7.87 0 017.89 7.85l.44 216a7.87 7.87 0 01-7.85 7.89z" fill="#5275A0"/><path d="M420.17 370.14l-325.86.67a7.87 7.87 0 01-7.89-7.86l-.44-216a7.87 7.87 0 017.85-7.88l325.86-.67a7.87 7.87 0 017.89 7.85l.44 216a7.87 7.87 0 01-7.85 7.89z" fill="#fff"/><path d="M419.16 138.39l-324.46.67a8.58 8.58 0 00-8.56 8.6l.01 7.45 341.61-.7v-7.46a8.58 8.58 0 00-8.6-8.56z" fill="#0056EC"/><path d="M95.09 370.8l49.02-.09-.44-215.72-57.6.12.43 207.16a8.56 8.56 0 008.59 8.54z" fill="#C8DBFB"/><path d="M419.8 140.55c3.13 0 5.69 2.56 5.7 5.7l.44 216c0 1.53-.58 2.96-1.67 4.04a5.62 5.62 0 01-4.02 1.68l-325.88.67a5.72 5.72 0 01-5.7-5.7l-.45-216c0-1.52.59-2.95 1.67-4.03a5.62 5.62 0 014.03-1.68l325.85-.68h.02zm0-2.16h-.03l-325.86.67a7.87 7.87 0 00-7.85 7.89l.44 216a7.87 7.87 0 007.87 7.85h.02l325.87-.67a7.87 7.87 0 007.85-7.9l-.45-215.99a7.87 7.87 0 00-7.87-7.85z" fill="#0056EC"/><path d="M135.84 354.32l-37.79.07a3.01 3.01 0 01-3.02-3.01V351a3.01 3.01 0 013.01-3.02l37.79-.08a3.01 3.01 0 013.02 3.01v.38a3 3 0 01-3.01 3.03zM131.3 207.97l-32.16.06a5.54 5.54 0 01-5.55-5.53l-.06-32.18a5.54 5.54 0 015.52-5.55l32.17-.06a5.54 5.54 0 015.54 5.52l.06 32.19a5.53 5.53 0 01-5.52 5.55z" fill="#fff"/><path d="M269 304.37l-112.06.23a3.95 3.95 0 01-3.96-3.93v-.49a3.95 3.95 0 013.94-3.95l112.06-.23a3.95 3.95 0 013.96 3.93v.49a3.94 3.94 0 01-3.94 3.95zM262.53 176.62l-88.56.18a3.95 3.95 0 01-3.95-3.93v-.49a3.95 3.95 0 013.93-3.96l88.56-.18a3.95 3.95 0 013.95 3.93v.5a3.94 3.94 0 01-3.93 3.95zM402.53 266.24l-118.08.25a3.95 3.95 0 01-3.95-3.93v-.5a3.95 3.95 0 013.93-3.95l118.08-.23a3.95 3.95 0 013.95 3.93v.49a3.95 3.95 0 01-3.93 3.94zM269.04 321.7l-112.07.23a3.95 3.95 0 01-3.95-3.94v-.48a3.95 3.95 0 013.93-3.96l112.07-.23a3.95 3.95 0 013.95 3.94v.49a3.94 3.94 0 01-3.93 3.95zM269.07 339.02l-112.07.22a3.95 3.95 0 01-3.95-3.93v-.49a3.95 3.95 0 013.93-3.95l112.07-.23a3.95 3.95 0 013.95 3.93v.5a3.94 3.94 0 01-3.93 3.95zM400.12 350.3l-112.94.25a6.5 6.5 0 01-6.52-6.5l-.1-48.54a6.5 6.5 0 016.5-6.52l112.94-.24a6.5 6.5 0 016.52 6.5l.1 48.53a6.5 6.5 0 01-6.5 6.53zM104.88 146.9a2.76 2.76 0 11-5.52.02 2.76 2.76 0 015.52-.02zM113.81 149.66a2.76 2.76 0 100-5.53 2.76 2.76 0 000 5.53zM128.26 146.86a2.76 2.76 0 11-5.52.01 2.76 2.76 0 015.52 0zM165.69 173.46a7.98 7.98 0 10-15.9-1.6 7.98 7.98 0 0015.9 1.6z" fill="#C8DBFB"/><path d="M133.54 214.72l-35.36.07a1.5 1.5 0 01-1.49-1.48v-.19c0-.82.66-1.48 1.48-1.5l35.36-.07c.83 0 1.49.66 1.5 1.49v.18c0 .82-.66 1.5-1.49 1.5zM133.56 221.48l-35.36.07a1.5 1.5 0 01-1.5-1.48v-.19c0-.82.66-1.48 1.48-1.5l35.36-.07c.83 0 1.49.66 1.5 1.49v.18a1.5 1.5 0 01-1.48 1.5z" fill="#fff"/><path d="M174.04 235.76l-10 .1.08 41.91-8.63.02a5.52 5.52 0 01-5.53-5.5l-.16-77.51a5.56 5.56 0 015.56-5.58l18.57-.05.1 46.61z" fill="#C8DBFB"/><path d="M238.9 189.02v1.09a5.43 5.43 0 015.42 5.41l.16 75.58a5.44 5.44 0 01-5.42 5.45l-82.6.17a5.43 5.43 0 01-5.43-5.42l-.15-75.57a5.44 5.44 0 015.42-5.45l82.59-.17v-1.09zm0 0h-.01l-82.6.18a6.5 6.5 0 00-6.49 6.52l.15 75.57a6.51 6.51 0 006.51 6.5h.01l82.59-.17a6.5 6.5 0 006.5-6.52l-.15-75.58a6.5 6.5 0 00-6.51-6.5zM376.8 251.21L266.65 226.3a6.52 6.52 0 01-4.91-7.8l12.39-54.85a6.51 6.51 0 017.78-4.92l110.17 24.9c3.5.8 5.7 4.29 4.91 7.8l-12.39 54.86a6.5 6.5 0 01-7.78 4.92z" fill="#C8DBFB"/><path d="M163.6 400.42l-15.4.04-3.78-19.65 22.88-.04-3.7 19.65z" fill="#0056EC"/><path d="M148.69 380.8c0 1.6-.3 4.3.76 4.33 1.08.05.63-2.55 1.84-2.48.78.05-.35 8.54 2.58 8.75 2.02.14 1.65-4.16 1.85-6.86.15-1.82 2.47-1.47 2.5-.26.02 1.35-.07 2.25 0 3.8.1 2.56 4.04 1.88 3.9-1.55-.14-3.42 0-5.74 0-5.74l-13.44.01z" fill="#C8DBFB"/><path d="M145 392.67c-.31 0-.62-.04-.9-.1a3.22 3.22 0 01-2.38-1.78c-1.57-3.34 2.57-9.58 2.73-9.86l.22 1.13c-.04.06-3.64 5.43-2.22 8.43.33.71.93 1.16 1.83 1.35.25.06.5.08.77.08 5.55-.01 15.04-10.36 15.15-10.48.39-.47 1.11-.02.85.37-.44.5-10.08 10.84-16.05 10.86z" fill="#0C2340"/><path opacity=".2" d="M306.98 123.96c-21.91-.83-52.08 15.38-41.38 55.02-.22 3.35 1.78 5.74 3.91 5.1 2.14-.66.25-7.02.25-7.02 3.65-29.47 10.48-34.57 22.05-34.46l27.18-.05c6.71.98 18.91 5.69 20.75 29.28l6.76 1.24c.54-17.04-3.58-47.73-39.52-49.1z" fill="#5275A0"/><path d="M306.98 120.5c-21.91-.83-52.08 15.38-41.38 55.02l4.16-1.92c3.65-29.47 10.48-34.56 22.05-34.45l27.18-.06c6.71.99 19.24 6.96 21.07 30.55l6.43-.01c.55-17.06-3.57-47.75-39.51-49.12z" fill="#EF832B"/><path d="M302.5 121.16l-3.26 7.15s.4 4.03 4.34 3.94c3.96-.08 4.49-1.9 4.49-1.9l.52-8.22-6.1-.97z" fill="#FFB9A3"/><path d="M319.22 115.19c-3.7 6.55-5.35 8.6-10.2 9.59-6.28 1.28-13.32-2.96-10.05-13.4 2.67-8.52 6.72-7.21 10.67-6.89 3.95.32 13.6 3.61 9.58 10.7z" fill="#FFB9A3"/><path d="M304.47 110c-.98-.5-2.25-.07-3.02.73a3.3 3.3 0 00-.83 3.17 2.88 2.88 0 00-2.71 3.02c-1.04-2.42-.48-4.94-.68-7.42-.2-2.48.06-5.17 1.67-7.07a8.03 8.03 0 012.4-1.85 12.45 12.45 0 0111.18-.16c.71.36 2.5 1.48 5.02.88 4.79-1.16 7.58 2.08 4.71 5.11.92.34 1.94.75 2.35 1.64.11.22.17.5.02.71-.1.14-.27.22-.44.27-.8.27-1.68.34-2.52.2.32.27 2.1.38 2.63 1.42 1.43 2.75-4.23 1.36-5.1 1.08 1 .19 3.57 2.24 2.75 3.66-.16.28-3.65 2.31-7.31-1.95a6.75 6.75 0 00-3.17-2.24c-.99-.26-2.03.1-3 .47-.7.25-2.49 1.35-3 .7-.53-.7.2-1.79-.95-2.36z" fill="#0C2340"/><path d="M340.76 169.63c-.97 3.35-1.94 3.67-.78 4.2 1.19.53 2.14-1.34 2.14-1.34l5.44 1.08s-1.23-3.53-2.08-3.95c-.86-.43-4.72 0-4.72 0zM269.76 173.6c.72 1.77.91 1.78 1.9 3.9 1.9 4.06-2.54 10.46-5.29 3.47-.75-1.91-.77-5.44-.77-5.44l4.16-1.93z" fill="#FFB9A3"/><path d="M312.22 101c3.71.2 8.28-2.42 11.2.93.27.32.8-.1.57-.44-2.78-4-7.95-1.02-11.76-1.13-.41 0-.4.61-.01.63zM313.71 98.94c-2.53.45-4.98-.75-7.53-.35-2.06.32-3.9 1.38-5.47 2.74-.4.34.12 1.03.58.73 2.19-1.44 4.29-2.68 7.02-2.48 1.98.14 3.66.74 5.63.14.5-.15.28-.86-.23-.78zM299.26 102.41a5.98 5.98 0 00-3.03 4.74c-.15 1.53-.2 5.06 1.35 5.92.37.21.76-.28.46-.6-1-1-1.08-3.72-1-5 .1-1.96.92-3.45 2.48-4.63.25-.18.03-.6-.26-.43zM326.74 108.51c-.92-1.6-3.27-3-5.08-2-.28.17-.15.6.16.6.8.02 1.52-.08 2.29.16.88.27 1.61.78 2.13 1.52.22.3.68.05.5-.28z" fill="#0C2340"/><path d="M206.22 273.82c11.5 4.22 21.47 17.4 19.17 26.99-2.58 10.82-10.05 15.5-10.05 15.5l-2.35-4.35s5.97-9.33 5.45-13.74c-.83-7.06-9.74-11.78-9.74-11.78l-2.48-12.62z" fill="#0B43A4"/><path d="M177.95 395.96s-7.05 2.85-8.82 4.46l13.97-.03v-4.44h-5.15zM208.82 395.69s2 2.32 2.38 4.65l-9.53.02c.16-1.6.84-3.15 1.77-4.66l5.38-.01z" fill="#0C2340"/><path d="M209.4 395.9h-6.5c.13-7.67-1.45-33.81-2.98-53.36-.9-11.47-1.79-20.68-2.3-22.54l3.48-.77 13.16-2.93c2.25 10.3-2.95 57.56-4.85 79.6z" fill="#047F76"/><path d="M185.49 319.59c-5.09 8-6.4 65.81-8.52 76.53l6.18.35s7.09-36.45 22.19-77.44l-19.85.56z" fill="#009790"/><path opacity=".2" d="M207.94 319.03a529.43 529.43 0 00-8.02 23.5c-.9-11.46-1.79-20.67-2.3-22.53l3.48-.77 6.84-.2z" fill="#5275A0"/><path d="M185.49 319.59c-5.09 8-6.4 65.81-8.52 76.53l6.18.35s7.09-36.45 22.19-77.44l-19.85.56z" fill="#009790"/><path d="M189.36 255.04s-3.95 15.06 5.93 15.05l-.59 3.85 7.5.82-1.63-5.37s1.48-9.47 1.58-11.18c.19-3.2-8.76-8.82-12.79-3.17z" fill="#FFB9A3"/><path d="M164.95 238.15h-2.91l.02 12.3h2.91l-.02-12.3z" fill="#0C2340"/><path d="M171.84 238.13l-16.7.03a2.12 2.12 0 01-2.12-2.1v-.44c0-1.17.94-2.13 2.1-2.13l16.7-.03c1.18 0 2.13.94 2.13 2.11v.44a2.11 2.11 0 01-2.11 2.12z" fill="#0056EC"/><path d="M161.26 253.66c-.08-2.78-2.38-2.06-1.12-6.6.78-2.83 6.6.45 5.87 2.4-.72 1.95-1.56 5.03-1.56 5.03l-3.2-.83z" fill="#FFB9A3"/><path d="M195.35 273.06c-14.76.97-15.73 5.96-22.34 5.18-9.78-1.15-8.07-19.32-6.86-25.84l-5.83.01s-10.53 41.39 22.72 33.74c-1.28 7.25 7 19.09-1.03 33.46 12.62 3.43 24.4 4.27 34.48-.07-1.77-2.38 3.62-26.43-6.92-43.73-2.06-3.4-13.14-2.83-14.22-2.75z" fill="#0056EC"/><path d="M195.35 273.06c-14.76.97-15.73 5.96-22.34 5.18-9.78-1.15-8.07-19.32-6.86-25.84l-5.83.01s-10.53 41.39 22.72 33.74c-1.28 7.25 7 19.09-1.03 33.46 12.62 3.43 24.4 4.27 34.48-.07-1.77-2.38 3.62-26.43-6.92-43.73-2.06-3.4-13.14-2.83-14.22-2.75z" fill="#0056EC"/><path d="M193.31 257.93c.97.25 2.08.43 2.6 1.25.34.53.32 1.19.28 1.8a1.47 1.47 0 012.87.34c.02.32-.1.62-.21.91-.3.74-.66 1.43-1.1 2.1 1.2.44 2.22 3.97 2.82 5.06 2.03-.5 6.54-2.25 6.93-9.43.19-3.35-.83-7.36-4.46-9.58-2.57-1.57-6.81-1.6-9.75-.85-2.38.6-6.17 3-4.4 5.77.88 1.4 2.83 2.22 4.43 2.63z" fill="#EF832B"/><path d="M205.96 253.36c1.38-.46 3.12-.22 3.95.93.63.9.58 2.07.79 3.14.1.52.28 1.04.68 1.4.47.42 1.17.53 1.82.56 1.59.09 3.2-.12 4.76.16 1.57.27 3.18 1.14 3.62 2.6.25.82.1 1.7.41 2.5.45 1.19 1.71 1.87 2.82 2.57a18.31 18.31 0 015.8 5.77 10.4 10.4 0 011.72 4.8c.11 1.7 1.35 3.95 1.01 5.62-.35 1.8-2.13 4.25-5.64 5.38-6.06 1.95-8 2.8-13.8-.66-.71-.41-2.08-1.83-2.72-2.34a3.1 3.1 0 01-.98-1.57c-.49-1.67.07-3.47.94-4.99.87-1.51 2.05-2.86 2.94-4.36.53-.91.96-1.92.92-2.96a1.6 1.6 0 00-.4-1.07c-.25-.24-.6-.36-.95-.43-1.28-.25-2.68.01-3.83-.56a2.7 2.7 0 01-1.4-3.09c.23-.78.83-1.44.99-2.23.24-1.15-.48-2.32-1.47-3-1-.66-2.22-.92-3.43-1.12-.6-.1-1.21-.2-1.69-.54a2.24 2.24 0 01-.85-1.88c.04-2.25 1.87-3.93 4-4.63z" fill="#EF832B"/><path d="M204.87 259.41c7.3 1.59-1.92 8.51 1.95 11.83 1.1.94 2.38.65 3.67.82 4.96.68 2.24 4.05 1.9 6.7-.05.4.61.47.7.1.42-1.83 2.09-4.06 1.23-6-.75-1.71-2.64-1.5-4.19-1.56-1.94-.05-4.07 0-3.34-3.85.16-.85.84-1.72 1.18-2.53.38-.93.64-1.85.43-2.87-.36-1.73-1.79-2.73-3.43-3-.24-.06-.35.31-.1.36zM189.83 250.46c5.63-2.86 11.24-2.28 16 1.91.32.28.75-.15.47-.48a12.47 12.47 0 00-16.62-1.7c-.17.13-.04.37.15.27z" fill="#EF832B"/><path d="M378.98 268.14l-2.43 4.92 5.95 2.44.64-5.66-4.16-1.7z" fill="#FFB9A3"/><path d="M382.58 252.15c-13.53 5.9-7.98 20.18.25 18.5 4-.81 6.03-13.73 6.03-13.73l-6.28-4.77z" fill="#FFB9A3"/><path d="M387.07 250.13c-.44-.82-.86-1.71-1.6-2.3-.74-.58-1.9-.78-2.58-.14-.9.84-.38 2.43.54 3.26-.79.1-1.73-.45-2.31.1-.45.41-.3 1.15-.04 1.7a7.49 7.49 0 002.78 3.18c-.69.38-1.49 1.14-1.08 1.82.12.18.3.31.43.5.26.43 0 1-.26 1.43-.43.7-.9 1.38-1.38 2.04.47-.64 1.6-.38 1.94.34.34.71.04 1.6-.49 2.18-.29.32-.66.6-1.1.69-.36.09-2 5.16-.73 6.15 1.58 1.23 6.95.17 7.74-1.22.77.85 1.91 1.49 3.04 1.26 1.13-.23 1.98-1.62 1.37-2.6 1.22.45 2.7.06 3.53-.94.84-1 .96-2.52.3-3.64.66-.2.8-1.09.63-1.76a4.11 4.11 0 00-2.81-2.88c.68 0 1.22-.69 1.26-1.37.03-.68-.33-1.33-.76-1.86-1.27-1.57-2.77-1.99-4.65-2.22-1.88-.23-2.92-2.16-3.77-3.72z" fill="#4A49CA"/><path d="M374.4 395.03s-7.91 3.8-8.98 4.98c0 0 15.58.7 16.8-.03 1.22-.74-2.49-4.96-2.49-4.96h-5.33zM403.85 390.73s-6.95 5.36-7.76 6.73c0 0 16.42-2.43 16.42-3.5 0-1.08-3.46-4.35-3.46-4.35l-5.2 1.12z" fill="#0C2340"/><path d="M382.05 321.6c-.3 1.6-11.13 44.4 19.88 70.08l8.98-2.06s-10.45-9.8-15.38-27.47c-4.66-16.7-.96-18.33 1.83-27.52 3.1-10.18.8-17.57.8-17.57l-16.11 4.53z" fill="#D8742A"/><path d="M367.23 321.46c-4.91 11.76-13.35 51.82 5.04 74.37l9.18-.02s-7.23-7.93-8.04-26.35c-.82-18.4 3.86-26.49 7.16-32.56 3.3-6.08 6.36-16.4 6.36-16.4l-19.7.96z" fill="#EF832B"/><path d="M360.76 248.59c-2.44 8.6-3.24 24.51 8.97 30.91l8.18-1.99s-14.75-7.74-11.59-27.28l-5.56-1.64z" fill="#0B43A4"/><path d="M338.22 244.19l6.35-.78s-.77 26.68 30.03 28.93c23.5 1.71 25.35 45.86 25.35 45.86-7.58 5.1-20.3 6.65-36.6 5.48 0 0 1.04-31.49-1.54-40.11 0-.01-25.6-8.06-23.6-39.38z" fill="#0056EC"/><path d="M330.45 239.35c-1.07 1.24 3.42 2.82 7.77 4.84l5.58-.68s.06-1.12 0-2.28c-.07-1.16-.65-1.82-1.31-.82s-3.48 1.33-4.81.42c-1.35-.92-6.15-2.73-7.23-1.48zM360.76 248.59c-2.05-2-1.5-1.89-1.5-1.89l6.23 1.41s1.36-3.04 2.53-3.12c1.16-.09-.87 2.1-.4 2.9.46.82-1.29 2.35-1.29 2.35l-5.57-1.65z" fill="#FFB9A3"/><path d="M390.57 253.06c1.28.33 2.58.46 3.64 1.34 1.05.86 1.53 2.35.77 3.55-.36.56.49 1 .87.51.96-1.27.7-3-.28-4.2-1.12-1.38-3.21-1.95-4.92-1.77-.3.03-.41.49-.08.57zM396.2 264.63c.85.5 1.55 1.3 1.2 2.35-.34.96-1.32 1.54-2.1 2.09-.39.27-.06.85.36.63 1.17-.62 2.4-1.49 2.59-2.92.16-1.24-.67-2.19-1.71-2.75-.38-.2-.7.37-.34.6zM381.98 271.08c2.87 1.8 6.93 1.5 9.3-1.01.3-.32-.1-.9-.47-.62-2.6 1.93-5.55 2.55-8.59 1.23-.27-.12-.5.24-.24.4z" fill="#4A49CA"/><path d="M396.58 254.95c1.65 1.57 0 3.72-1.06 5.06-.24.3.13.7.42.42.94-.88 1.89-1.85 2.02-3.2a2.48 2.48 0 00-1.23-2.48c-.12-.06-.26.1-.15.2z" fill="#4A49CA"/><path d="M213.38 57l-2.53-6.21 24.5-9.32L213.39 57z" fill="#0B43A4"/><path d="M214.62 53.16l20.74-11.7-14.44 14.68-6.3-2.98z" fill="#5193F4"/><path d="M205.24 48.25l30.12-6.78-24.51 9.32-5.61-2.54z" fill="#5193F4"/><path d="M214.62 53.16L213.38 57l3.75-2.65-2.51-1.19z" fill="#0056EC"/><path d="M210.5 56.16c-6.4-1.08-15.08 5.4-11.35 12.14 1.27 2.3 7.83 1.3 7.34-1.24-.23-1.21-1.72-1.73-2.94-1.59-7.15.82-7.44 6.82-7.12 8.34 1.64 7.9 13.72 5.23 17.79 4.11" stroke="#C8DBFB" stroke-miterlimit="10" stroke-linecap="round" stroke-linejoin="round" stroke-dasharray="4 4"/></g><defs><clipPath id="clip0"><path fill="#fff" d="M0 0h514v439H0z"/></clipPath></defs></svg>